<mxfile host="app.diagrams.net" modified="2022-09-29T12:43:14.128Z" agent="5.0 (Macintosh; Intel Mac OS X 10_15_7) AppleWebKit/537.36 (KHTML, like Gecko) Chrome/105.0.0.0 Safari/537.36" etag="auU37RjK_5Te7w6VvhFE" version="16.2.6" type="github">
  <diagram id="vu_ENW9BHtDXbUHurVaX" name="Page-1">
    <mxGraphModel dx="1005" dy="603" grid="1" gridSize="10" guides="1" tooltips="1" connect="1" arrows="1" fold="1" page="1" pageScale="1" pageWidth="827" pageHeight="1169" math="0" shadow="0">
      <root>
        <mxCell id="0" />
        <mxCell id="1" parent="0" />
        <mxCell id="evaJ3xZv_cRw8n1gjBS3-2" value="首页配置泳道图" style="swimlane;childLayout=stackLayout;resizeParent=1;resizeParentMax=0;startSize=35;fillColor=#f8cecc;strokeColor=#b85450;" vertex="1" parent="1">
          <mxGeometry x="29" y="45" width="840" height="515" as="geometry" />
        </mxCell>
        <mxCell id="evaJ3xZv_cRw8n1gjBS3-3" value="神农侧" style="swimlane;startSize=30;fillColor=#dae8fc;strokeColor=#6c8ebf;" vertex="1" parent="evaJ3xZv_cRw8n1gjBS3-2">
          <mxGeometry y="35" width="230" height="480" as="geometry" />
        </mxCell>
        <mxCell id="evaJ3xZv_cRw8n1gjBS3-36" style="edgeStyle=orthogonalEdgeStyle;rounded=0;orthogonalLoop=1;jettySize=auto;html=1;exitX=0.5;exitY=1;exitDx=0;exitDy=0;entryX=0.5;entryY=0;entryDx=0;entryDy=0;" edge="1" parent="evaJ3xZv_cRw8n1gjBS3-3" source="evaJ3xZv_cRw8n1gjBS3-8" target="evaJ3xZv_cRw8n1gjBS3-9">
          <mxGeometry relative="1" as="geometry" />
        </mxCell>
        <mxCell id="evaJ3xZv_cRw8n1gjBS3-8" value="页面配置" style="rounded=0;whiteSpace=wrap;html=1;fillColor=#d5e8d4;strokeColor=#82b366;" vertex="1" parent="evaJ3xZv_cRw8n1gjBS3-3">
          <mxGeometry x="39" y="112" width="150" height="30" as="geometry" />
        </mxCell>
        <mxCell id="evaJ3xZv_cRw8n1gjBS3-37" style="edgeStyle=orthogonalEdgeStyle;rounded=0;orthogonalLoop=1;jettySize=auto;html=1;exitX=0.5;exitY=1;exitDx=0;exitDy=0;entryX=0.5;entryY=0;entryDx=0;entryDy=0;" edge="1" parent="evaJ3xZv_cRw8n1gjBS3-3" source="evaJ3xZv_cRw8n1gjBS3-9" target="evaJ3xZv_cRw8n1gjBS3-11">
          <mxGeometry relative="1" as="geometry" />
        </mxCell>
        <mxCell id="evaJ3xZv_cRw8n1gjBS3-9" value="模块配置" style="rounded=0;whiteSpace=wrap;html=1;fillColor=#d5e8d4;strokeColor=#82b366;" vertex="1" parent="evaJ3xZv_cRw8n1gjBS3-3">
          <mxGeometry x="39" y="162" width="150" height="30" as="geometry" />
        </mxCell>
        <mxCell id="evaJ3xZv_cRw8n1gjBS3-63" style="edgeStyle=orthogonalEdgeStyle;rounded=0;orthogonalLoop=1;jettySize=auto;html=1;exitX=0.5;exitY=1;exitDx=0;exitDy=0;entryX=0.5;entryY=0;entryDx=0;entryDy=0;" edge="1" parent="evaJ3xZv_cRw8n1gjBS3-3" source="evaJ3xZv_cRw8n1gjBS3-11" target="evaJ3xZv_cRw8n1gjBS3-25">
          <mxGeometry relative="1" as="geometry" />
        </mxCell>
        <mxCell id="evaJ3xZv_cRw8n1gjBS3-11" value="点击保存配置" style="rounded=0;whiteSpace=wrap;html=1;fillColor=#d5e8d4;strokeColor=#82b366;" vertex="1" parent="evaJ3xZv_cRw8n1gjBS3-3">
          <mxGeometry x="39" y="216" width="150" height="30" as="geometry" />
        </mxCell>
        <mxCell id="evaJ3xZv_cRw8n1gjBS3-40" style="edgeStyle=orthogonalEdgeStyle;rounded=0;orthogonalLoop=1;jettySize=auto;html=1;exitX=0.5;exitY=1;exitDx=0;exitDy=0;entryX=0.5;entryY=0;entryDx=0;entryDy=0;" edge="1" parent="evaJ3xZv_cRw8n1gjBS3-3" source="evaJ3xZv_cRw8n1gjBS3-25" target="evaJ3xZv_cRw8n1gjBS3-26">
          <mxGeometry relative="1" as="geometry" />
        </mxCell>
        <mxCell id="evaJ3xZv_cRw8n1gjBS3-59" value="" style="edgeStyle=orthogonalEdgeStyle;rounded=0;orthogonalLoop=1;jettySize=auto;html=1;" edge="1" parent="evaJ3xZv_cRw8n1gjBS3-3" source="evaJ3xZv_cRw8n1gjBS3-25" target="evaJ3xZv_cRw8n1gjBS3-52">
          <mxGeometry relative="1" as="geometry" />
        </mxCell>
        <mxCell id="evaJ3xZv_cRw8n1gjBS3-25" value="保存后端配置" style="rounded=0;whiteSpace=wrap;html=1;fillColor=#d5e8d4;strokeColor=#82b366;" vertex="1" parent="evaJ3xZv_cRw8n1gjBS3-3">
          <mxGeometry x="39" y="273" width="150" height="30" as="geometry" />
        </mxCell>
        <mxCell id="evaJ3xZv_cRw8n1gjBS3-53" style="edgeStyle=orthogonalEdgeStyle;rounded=0;orthogonalLoop=1;jettySize=auto;html=1;exitX=0.5;exitY=1;exitDx=0;exitDy=0;entryX=0.5;entryY=0;entryDx=0;entryDy=0;" edge="1" parent="evaJ3xZv_cRw8n1gjBS3-3" source="evaJ3xZv_cRw8n1gjBS3-26" target="evaJ3xZv_cRw8n1gjBS3-52">
          <mxGeometry relative="1" as="geometry" />
        </mxCell>
        <mxCell id="evaJ3xZv_cRw8n1gjBS3-26" value="发布/刷新CDN" style="rounded=0;whiteSpace=wrap;html=1;fillColor=#d5e8d4;strokeColor=#82b366;" vertex="1" parent="evaJ3xZv_cRw8n1gjBS3-3">
          <mxGeometry x="39" y="333" width="150" height="30" as="geometry" />
        </mxCell>
        <mxCell id="evaJ3xZv_cRw8n1gjBS3-52" value="同步zero" style="rounded=0;whiteSpace=wrap;html=1;fillColor=#d5e8d4;strokeColor=#82b366;" vertex="1" parent="evaJ3xZv_cRw8n1gjBS3-3">
          <mxGeometry x="39" y="393" width="150" height="30" as="geometry" />
        </mxCell>
        <mxCell id="evaJ3xZv_cRw8n1gjBS3-61" value="配置规则" style="rounded=1;whiteSpace=wrap;html=1;fillColor=#e1d5e7;strokeColor=#9673a6;" vertex="1" parent="evaJ3xZv_cRw8n1gjBS3-3">
          <mxGeometry x="39" y="50" width="151" height="35" as="geometry" />
        </mxCell>
        <mxCell id="evaJ3xZv_cRw8n1gjBS3-4" value="商家端服务" style="swimlane;startSize=30;fillColor=#dae8fc;strokeColor=#6c8ebf;" vertex="1" parent="evaJ3xZv_cRw8n1gjBS3-2">
          <mxGeometry x="230" y="35" width="200" height="480" as="geometry" />
        </mxCell>
        <mxCell id="evaJ3xZv_cRw8n1gjBS3-24" value="保存规则【注1】" style="rounded=0;whiteSpace=wrap;html=1;fillColor=#d5e8d4;strokeColor=#82b366;" vertex="1" parent="evaJ3xZv_cRw8n1gjBS3-4">
          <mxGeometry x="24.5" y="110" width="150" height="30" as="geometry" />
        </mxCell>
        <mxCell id="evaJ3xZv_cRw8n1gjBS3-115" style="edgeStyle=orthogonalEdgeStyle;rounded=0;orthogonalLoop=1;jettySize=auto;html=1;exitX=0.5;exitY=1;exitDx=0;exitDy=0;entryX=0.5;entryY=0;entryDx=0;entryDy=0;" edge="1" parent="evaJ3xZv_cRw8n1gjBS3-4" source="evaJ3xZv_cRw8n1gjBS3-33" target="evaJ3xZv_cRw8n1gjBS3-103">
          <mxGeometry relative="1" as="geometry" />
        </mxCell>
        <mxCell id="evaJ3xZv_cRw8n1gjBS3-33" value="获取规则【注2】" style="rounded=0;whiteSpace=wrap;html=1;fillColor=#d5e8d4;strokeColor=#82b366;" vertex="1" parent="evaJ3xZv_cRw8n1gjBS3-4">
          <mxGeometry x="25.5" y="230" width="150" height="30" as="geometry" />
        </mxCell>
        <mxCell id="evaJ3xZv_cRw8n1gjBS3-64" value="服务端接口响应" style="rounded=1;whiteSpace=wrap;html=1;fillColor=#e1d5e7;strokeColor=#9673a6;" vertex="1" parent="evaJ3xZv_cRw8n1gjBS3-4">
          <mxGeometry x="24.5" y="50" width="151" height="35" as="geometry" />
        </mxCell>
        <mxCell id="evaJ3xZv_cRw8n1gjBS3-114" style="edgeStyle=orthogonalEdgeStyle;rounded=0;orthogonalLoop=1;jettySize=auto;html=1;exitX=0.5;exitY=1;exitDx=0;exitDy=0;entryX=0.5;entryY=0;entryDx=0;entryDy=0;" edge="1" parent="evaJ3xZv_cRw8n1gjBS3-4" source="evaJ3xZv_cRw8n1gjBS3-102" target="evaJ3xZv_cRw8n1gjBS3-33">
          <mxGeometry relative="1" as="geometry" />
        </mxCell>
        <mxCell id="evaJ3xZv_cRw8n1gjBS3-102" value="是否需要规则？" style="rhombus;whiteSpace=wrap;html=1;fillColor=#f8cecc;strokeColor=#b85450;" vertex="1" parent="evaJ3xZv_cRw8n1gjBS3-4">
          <mxGeometry x="10.75" y="160" width="178.5" height="53" as="geometry" />
        </mxCell>
        <mxCell id="evaJ3xZv_cRw8n1gjBS3-116" style="edgeStyle=orthogonalEdgeStyle;rounded=0;orthogonalLoop=1;jettySize=auto;html=1;exitX=0.5;exitY=1;exitDx=0;exitDy=0;entryX=0.5;entryY=0;entryDx=0;entryDy=0;" edge="1" parent="evaJ3xZv_cRw8n1gjBS3-4" source="evaJ3xZv_cRw8n1gjBS3-103" target="evaJ3xZv_cRw8n1gjBS3-104">
          <mxGeometry relative="1" as="geometry" />
        </mxCell>
        <mxCell id="evaJ3xZv_cRw8n1gjBS3-103" value="执行规则" style="rounded=0;whiteSpace=wrap;html=1;fillColor=#d5e8d4;strokeColor=#82b366;" vertex="1" parent="evaJ3xZv_cRw8n1gjBS3-4">
          <mxGeometry x="24.5" y="290" width="150" height="30" as="geometry" />
        </mxCell>
        <mxCell id="evaJ3xZv_cRw8n1gjBS3-117" style="edgeStyle=orthogonalEdgeStyle;rounded=0;orthogonalLoop=1;jettySize=auto;html=1;exitX=0.5;exitY=1;exitDx=0;exitDy=0;entryX=0.5;entryY=0;entryDx=0;entryDy=0;" edge="1" parent="evaJ3xZv_cRw8n1gjBS3-4" source="evaJ3xZv_cRw8n1gjBS3-104" target="evaJ3xZv_cRw8n1gjBS3-105">
          <mxGeometry relative="1" as="geometry" />
        </mxCell>
        <mxCell id="evaJ3xZv_cRw8n1gjBS3-104" value="获取数据" style="rounded=0;whiteSpace=wrap;html=1;fillColor=#d5e8d4;strokeColor=#82b366;" vertex="1" parent="evaJ3xZv_cRw8n1gjBS3-4">
          <mxGeometry x="25.5" y="350" width="150" height="30" as="geometry" />
        </mxCell>
        <mxCell id="evaJ3xZv_cRw8n1gjBS3-105" value="返回数据" style="rounded=0;whiteSpace=wrap;html=1;fillColor=#d5e8d4;strokeColor=#82b366;" vertex="1" parent="evaJ3xZv_cRw8n1gjBS3-4">
          <mxGeometry x="24.5" y="410" width="150" height="30" as="geometry" />
        </mxCell>
        <mxCell id="evaJ3xZv_cRw8n1gjBS3-5" value="商家端" style="swimlane;startSize=30;fillColor=#dae8fc;strokeColor=#6c8ebf;" vertex="1" parent="evaJ3xZv_cRw8n1gjBS3-2">
          <mxGeometry x="430" y="35" width="230" height="480" as="geometry" />
        </mxCell>
        <mxCell id="evaJ3xZv_cRw8n1gjBS3-107" style="edgeStyle=orthogonalEdgeStyle;rounded=0;orthogonalLoop=1;jettySize=auto;html=1;exitX=0.5;exitY=1;exitDx=0;exitDy=0;entryX=0.5;entryY=0;entryDx=0;entryDy=0;" edge="1" parent="evaJ3xZv_cRw8n1gjBS3-5" source="evaJ3xZv_cRw8n1gjBS3-28" target="evaJ3xZv_cRw8n1gjBS3-29">
          <mxGeometry relative="1" as="geometry" />
        </mxCell>
        <mxCell id="evaJ3xZv_cRw8n1gjBS3-28" value="获取页面配置CDN文件" style="rounded=0;whiteSpace=wrap;html=1;fillColor=#d5e8d4;strokeColor=#82b366;" vertex="1" parent="evaJ3xZv_cRw8n1gjBS3-5">
          <mxGeometry x="39.5" y="110" width="150" height="30" as="geometry" />
        </mxCell>
        <mxCell id="evaJ3xZv_cRw8n1gjBS3-108" style="edgeStyle=orthogonalEdgeStyle;rounded=0;orthogonalLoop=1;jettySize=auto;html=1;exitX=0.5;exitY=1;exitDx=0;exitDy=0;entryX=0.5;entryY=0;entryDx=0;entryDy=0;" edge="1" parent="evaJ3xZv_cRw8n1gjBS3-5" source="evaJ3xZv_cRw8n1gjBS3-29" target="evaJ3xZv_cRw8n1gjBS3-34">
          <mxGeometry relative="1" as="geometry" />
        </mxCell>
        <mxCell id="evaJ3xZv_cRw8n1gjBS3-29" value="解析配置文件" style="rounded=0;whiteSpace=wrap;html=1;fillColor=#d5e8d4;strokeColor=#82b366;" vertex="1" parent="evaJ3xZv_cRw8n1gjBS3-5">
          <mxGeometry x="40.5" y="160" width="150" height="30" as="geometry" />
        </mxCell>
        <mxCell id="evaJ3xZv_cRw8n1gjBS3-109" style="edgeStyle=orthogonalEdgeStyle;rounded=0;orthogonalLoop=1;jettySize=auto;html=1;exitX=0.5;exitY=1;exitDx=0;exitDy=0;entryX=0.5;entryY=0;entryDx=0;entryDy=0;" edge="1" parent="evaJ3xZv_cRw8n1gjBS3-5" source="evaJ3xZv_cRw8n1gjBS3-34" target="evaJ3xZv_cRw8n1gjBS3-68">
          <mxGeometry relative="1" as="geometry" />
        </mxCell>
        <mxCell id="evaJ3xZv_cRw8n1gjBS3-34" value="解析逻辑配置" style="rounded=0;whiteSpace=wrap;html=1;fillColor=#d5e8d4;strokeColor=#82b366;" vertex="1" parent="evaJ3xZv_cRw8n1gjBS3-5">
          <mxGeometry x="40.5" y="210" width="150" height="30" as="geometry" />
        </mxCell>
        <mxCell id="evaJ3xZv_cRw8n1gjBS3-65" value="页面渲染" style="rounded=1;whiteSpace=wrap;html=1;fillColor=#e1d5e7;strokeColor=#9673a6;" vertex="1" parent="evaJ3xZv_cRw8n1gjBS3-5">
          <mxGeometry x="39.5" y="50" width="151" height="35" as="geometry" />
        </mxCell>
        <mxCell id="evaJ3xZv_cRw8n1gjBS3-112" style="edgeStyle=orthogonalEdgeStyle;rounded=0;orthogonalLoop=1;jettySize=auto;html=1;exitX=0.5;exitY=1;exitDx=0;exitDy=0;entryX=0.5;entryY=0;entryDx=0;entryDy=0;" edge="1" parent="evaJ3xZv_cRw8n1gjBS3-5" source="evaJ3xZv_cRw8n1gjBS3-68" target="evaJ3xZv_cRw8n1gjBS3-69">
          <mxGeometry relative="1" as="geometry" />
        </mxCell>
        <mxCell id="evaJ3xZv_cRw8n1gjBS3-68" value="是否需要请求数据？" style="rhombus;whiteSpace=wrap;html=1;fillColor=#f8cecc;strokeColor=#b85450;" vertex="1" parent="evaJ3xZv_cRw8n1gjBS3-5">
          <mxGeometry x="21.75" y="260" width="187.5" height="53" as="geometry" />
        </mxCell>
        <mxCell id="evaJ3xZv_cRw8n1gjBS3-111" style="edgeStyle=orthogonalEdgeStyle;rounded=0;orthogonalLoop=1;jettySize=auto;html=1;exitX=0.5;exitY=1;exitDx=0;exitDy=0;entryX=0.5;entryY=0;entryDx=0;entryDy=0;" edge="1" parent="evaJ3xZv_cRw8n1gjBS3-5" source="evaJ3xZv_cRw8n1gjBS3-69" target="evaJ3xZv_cRw8n1gjBS3-70">
          <mxGeometry relative="1" as="geometry" />
        </mxCell>
        <mxCell id="evaJ3xZv_cRw8n1gjBS3-69" value="解析数据处理配置" style="rounded=0;whiteSpace=wrap;html=1;fillColor=#d5e8d4;strokeColor=#82b366;" vertex="1" parent="evaJ3xZv_cRw8n1gjBS3-5">
          <mxGeometry x="40.5" y="330" width="150" height="30" as="geometry" />
        </mxCell>
        <mxCell id="evaJ3xZv_cRw8n1gjBS3-110" style="edgeStyle=orthogonalEdgeStyle;rounded=0;orthogonalLoop=1;jettySize=auto;html=1;exitX=0.5;exitY=1;exitDx=0;exitDy=0;entryX=0.5;entryY=0;entryDx=0;entryDy=0;" edge="1" parent="evaJ3xZv_cRw8n1gjBS3-5" source="evaJ3xZv_cRw8n1gjBS3-70" target="evaJ3xZv_cRw8n1gjBS3-101">
          <mxGeometry relative="1" as="geometry" />
        </mxCell>
        <mxCell id="evaJ3xZv_cRw8n1gjBS3-70" value="解析埋点配置&lt;span style=&quot;color: rgba(0 , 0 , 0 , 0) ; font-family: monospace ; font-size: 0px&quot;&gt;%3CmxGraphModel%3E%3Croot%3E%3CmxCell%20id%3D%220%22%2F%3E%3CmxCell%20id%3D%221%22%20parent%3D%220%22%2F%3E%3CmxCell%20id%3D%222%22%20value%3D%22%E8%A7%A3%E6%9E%90%E6%95%B0%E6%8D%AE%E5%A4%84%E7%90%86%E9%85%8D%E7%BD%AE%22%20style%3D%22rounded%3D0%3BwhiteSpace%3Dwrap%3Bhtml%3D1%3BfillColor%3D%23d5e8d4%3BstrokeColor%3D%2382b366%3B%22%20vertex%3D%221%22%20parent%3D%221%22%3E%3CmxGeometry%20x%3D%22465.5%22%20y%3D%22410%22%20width%3D%22150%22%20height%3D%2230%22%20as%3D%22geometry%22%2F%3E%3C%2FmxCell%3E%3C%2Froot%3E%3C%2FmxGraphModel%3E&lt;/span&gt;" style="rounded=0;whiteSpace=wrap;html=1;fillColor=#d5e8d4;strokeColor=#82b366;" vertex="1" parent="evaJ3xZv_cRw8n1gjBS3-5">
          <mxGeometry x="40.5" y="380" width="150" height="30" as="geometry" />
        </mxCell>
        <mxCell id="evaJ3xZv_cRw8n1gjBS3-101" value="渲染页面" style="rounded=0;whiteSpace=wrap;html=1;fillColor=#d5e8d4;strokeColor=#82b366;" vertex="1" parent="evaJ3xZv_cRw8n1gjBS3-5">
          <mxGeometry x="40.5" y="430" width="150" height="30" as="geometry" />
        </mxCell>
        <mxCell id="evaJ3xZv_cRw8n1gjBS3-23" value="Zero" style="swimlane;startSize=30;fillColor=#dae8fc;strokeColor=#6c8ebf;" vertex="1" parent="evaJ3xZv_cRw8n1gjBS3-2">
          <mxGeometry x="660" y="35" width="180" height="480" as="geometry" />
        </mxCell>
        <mxCell id="evaJ3xZv_cRw8n1gjBS3-27" value="同步配置" style="rounded=0;whiteSpace=wrap;html=1;fillColor=#d5e8d4;strokeColor=#82b366;" vertex="1" parent="evaJ3xZv_cRw8n1gjBS3-23">
          <mxGeometry x="15" y="390" width="135" height="30" as="geometry" />
        </mxCell>
        <mxCell id="evaJ3xZv_cRw8n1gjBS3-106" style="edgeStyle=orthogonalEdgeStyle;rounded=0;orthogonalLoop=1;jettySize=auto;html=1;exitX=1;exitY=0.5;exitDx=0;exitDy=0;entryX=0;entryY=0.5;entryDx=0;entryDy=0;" edge="1" parent="evaJ3xZv_cRw8n1gjBS3-2" source="evaJ3xZv_cRw8n1gjBS3-25" target="evaJ3xZv_cRw8n1gjBS3-24">
          <mxGeometry relative="1" as="geometry" />
        </mxCell>
        <mxCell id="evaJ3xZv_cRw8n1gjBS3-118" style="edgeStyle=orthogonalEdgeStyle;rounded=0;orthogonalLoop=1;jettySize=auto;html=1;exitX=1;exitY=0.5;exitDx=0;exitDy=0;entryX=0;entryY=0.5;entryDx=0;entryDy=0;" edge="1" parent="evaJ3xZv_cRw8n1gjBS3-2" source="evaJ3xZv_cRw8n1gjBS3-105" target="evaJ3xZv_cRw8n1gjBS3-69">
          <mxGeometry relative="1" as="geometry" />
        </mxCell>
        <mxCell id="evaJ3xZv_cRw8n1gjBS3-119" style="edgeStyle=orthogonalEdgeStyle;rounded=0;orthogonalLoop=1;jettySize=auto;html=1;exitX=0;exitY=0.5;exitDx=0;exitDy=0;entryX=1;entryY=0.5;entryDx=0;entryDy=0;" edge="1" parent="evaJ3xZv_cRw8n1gjBS3-2" source="evaJ3xZv_cRw8n1gjBS3-68" target="evaJ3xZv_cRw8n1gjBS3-102">
          <mxGeometry relative="1" as="geometry">
            <Array as="points">
              <mxPoint x="439" y="322" />
              <mxPoint x="439" y="222" />
            </Array>
          </mxGeometry>
        </mxCell>
        <mxCell id="evaJ3xZv_cRw8n1gjBS3-120" style="edgeStyle=orthogonalEdgeStyle;rounded=0;orthogonalLoop=1;jettySize=auto;html=1;exitX=0.5;exitY=1;exitDx=0;exitDy=0;entryX=0.578;entryY=1;entryDx=0;entryDy=0;entryPerimeter=0;" edge="1" parent="evaJ3xZv_cRw8n1gjBS3-2" source="evaJ3xZv_cRw8n1gjBS3-52" target="evaJ3xZv_cRw8n1gjBS3-27">
          <mxGeometry relative="1" as="geometry">
            <Array as="points">
              <mxPoint x="114" y="505" />
              <mxPoint x="753" y="505" />
            </Array>
          </mxGeometry>
        </mxCell>
      </root>
    </mxGraphModel>
  </diagram>
</mxfile>
